<?xml version="1.0" standalone="no"?>
<!DOCTYPE svg PUBLIC "-//W3C//DTD SVG 20010904//EN"
 "http://www.w3.org/TR/2001/REC-SVG-20010904/DTD/svg10.dtd">
<svg version="1.0" xmlns="http://www.w3.org/2000/svg"
 width="300.000000pt" height="300.000000pt" viewBox="0 0 300.000000 300.000000"
 preserveAspectRatio="xMidYMid meet">
<metadata>
Created by potrace 1.11, written by Peter Selinger 2001-2013
</metadata>
<g transform="translate(0.000000,300.000000) scale(0.100000,-0.100000)"
fill="#000000" stroke="none">
<path d="M1275 2775 c-14 -13 -25 -29 -25 -35 0 -20 20 -50 34 -50 12 0 12 -8
0 -52 -7 -29 -14 -65 -14 -80 0 -21 -4 -25 -19 -21 -25 6 -58 -12 -72 -40 -10
-19 -8 -18 16 6 48 47 76 32 67 -35 -5 -32 -23 -35 -64 -14 -16 8 -28 11 -28
6 0 -14 35 -30 64 -30 21 0 26 -5 27 -27 1 -52 7 -125 14 -169 4 -31 3 -44 -6
-44 -42 0 -239 -162 -239 -196 0 -8 -5 -14 -10 -14 -10 0 -58 -99 -63 -130 -1
-8 -7 -22 -12 -30 -14 -23 -18 -238 -6 -320 12 -78 67 -306 78 -324 4 -5 8
-19 9 -31 1 -11 19 -76 39 -145 39 -135 58 -164 114 -180 55 -16 179 -26 252
-20 l66 5 2 -120 c1 -66 3 -140 4 -165 2 -49 5 -47 -65 -33 -68 13 -149 -31
-184 -100 -24 -44 -13 -122 21 -153 l26 -24 -21 -67 c-11 -37 -27 -77 -34 -88
-37 -58 -55 -55 290 -55 l316 0 -5 27 c-3 16 -10 47 -15 70 -11 52 2 84 40 97
23 8 31 6 48 -14 11 -13 23 -34 26 -47 4 -13 9 -23 13 -23 7 0 13 -34 15 -82
1 -28 1 -28 77 -28 85 0 85 0 66 80 -11 47 -66 173 -78 178 -8 3 12 62 21 62
3 0 5 31 5 69 -2 82 -24 121 -84 144 -46 19 -81 14 -136 -16 -35 -20 -101 -27
-155 -18 -6 1 -7 15 -15 151 -7 131 -8 170 -3 176 3 2 22 5 44 7 21 1 41 5 44
8 3 4 21 10 41 13 20 3 49 10 64 16 15 6 30 8 33 5 3 -2 10 -1 16 4 6 4 43 19
81 31 39 12 88 30 110 40 22 10 69 30 105 46 112 49 111 47 105 139 -8 120
-27 299 -39 365 -3 14 -7 45 -10 70 -3 25 -8 56 -11 70 -5 27 -13 79 -20 135
-17 129 -79 378 -102 409 -37 50 -117 86 -243 111 -85 17 -304 -1 -432 -35
-67 -18 -68 -18 -68 1 0 10 1 21 3 22 1 2 -3 10 -10 19 -7 8 -14 33 -15 56 -2
23 -6 42 -10 42 -21 0 -4 29 22 38 16 6 35 23 42 38 11 23 10 28 -12 46 -13
10 -36 22 -52 25 -26 5 -27 8 -24 52 2 25 4 53 5 62 1 9 12 20 25 23 46 11 39
88 -9 106 -39 15 -54 12 -80 -15z m126 -264 c23 -19 24 -19 5 -40 -11 -12 -29
-21 -41 -21 -18 0 -21 6 -23 40 -2 34 0 40 16 40 11 0 30 -9 43 -19z"/>
</g>
</svg>
